# xmcd
#
# Track frame offsets:
# 183
# 19750
# 38145
# 55258
# 72115
# 99268
# 120218
# 135543
# 156448
# 175805
# 203205
# 219650
# 236078
# 255488
#
# Disc length: 3979 seconds
#
#
# Revision: 3
# Processed by: cddbd v1.5PL3 Copyright (c) Steve Scherf et al.
# Submitted via: FreeRIP 2.60 
#
DISCID=bb0f890e
DTITLE=Michel Sardou - L'intégrale - CD 10
DYEAR=1989
DGENRE=Blues
TTITLE0=L'acteur
TTITLE1=Tous les bateaux s'envolent
TTITLE2=Laisse-toi prendre
TTITLE3=Le successeur
TTITLE4=La même eau qui coule
TTITLE5=Le Paraguay n'est plus ce qu'il était
TTITLE6=Elle pleure son homme
TTITLE7=Dans ma mémoire elle était bleue
TTITLE8=Attention les enfants, danger
TTITLE9=Elle en aura besoin plus tard
TTITLE10=Les hommes qui ne dorment jamais
TTITLE11=Vincent
TTITLE12=Les masques
TTITLE13=Un jour la liberté
EXTD=
EXTT0=
EXTT1=
EXTT2=
EXTT3=
EXTT4=
EXTT5=
EXTT6=
EXTT7=
EXTT8=
EXTT9=
EXTT10=
EXTT11=
EXTT12=
EXTT13=
PLAYORDER=
